<svg width="120" height="120" viewBox="0 0 120 120" fill="none" xmlns="http://www.w3.org/2000/svg">
<path d="M60 120C93.1371 120 120 93.1371 120 60C120 26.8629 93.1371 0 60 0C26.8629 0 0 26.8629 0 60C0 93.1371 26.8629 120 60 120Z" fill="#E9B921"/>
<path d="M17.0127 85.3049C19.7534 85.8539 22.4724 86.5238 25.2277 86.9811C27.0452 87.2825 28.1345 88.4315 29.1321 89.7553C30.7719 91.9311 32.853 93.6189 35.186 94.9238C37.8816 96.4311 40.886 97.2801 43.7331 98.4699C47.4903 100.041 51.3568 101.397 54.635 103.919C56.2428 105.157 57.9117 106.156 59.7714 105.821C62.5777 105.824 63.003 105.666 65.0855 104.195C66.2272 103.389 67.3064 102.478 68.5894 101.889C72.9685 99.8811 77.3753 97.9471 81.9146 96.3116C85.6719 94.9573 88.7942 92.6869 91.235 89.4801C92.2311 88.1723 93.3801 87.1136 95.2136 86.8616C97.8962 86.4917 100.538 85.8277 103.199 85.2917C105.861 84.7558 107.461 82.7068 107.313 80.0286C107.238 78.7034 106.647 77.6534 105.567 76.9121C104.591 76.2437 104.23 75.4879 104.675 74.2893C105.015 73.3777 105.261 72.418 105.368 71.4189C105.705 68.333 105.599 65.2413 105.514 62.1583C105.454 59.9549 105.628 57.7092 104.843 55.5597C104.551 54.7602 104.792 53.9578 105.06 53.1495C105.36 52.2451 105.81 51.4063 105.502 50.3068C104.661 47.2937 102.194 46.4563 99.6656 46.1199C96.8534 45.7456 94.0602 45.2534 91.251 44.8704C89.6418 44.6505 89.467 44.4248 89.5005 42.7864C89.534 41.1524 89.0782 39.8053 87.6656 38.8456C86.7321 38.2107 86.4743 37.3573 86.6418 36.1704C86.9243 34.1723 87.8884 32.6578 89.2617 31.2684C91.2772 29.2282 91.8525 26.1961 90.5331 23.5995C89.2937 21.1616 87.2345 19.7636 84.3787 19.7738C82.3835 19.7811 80.6826 20.4437 79.3107 21.9248C78.702 22.583 78.07 22.9966 77.2326 22.133C74.8544 19.6806 72.1093 18.8316 68.8297 20.2587C67.6777 20.7597 67.2292 20.4684 66.7632 19.2976C66.2899 18.1121 65.7874 16.9296 64.819 16.0442C60.9423 12.4981 55.2598 14.0272 53.3039 19.1374C52.7476 20.5908 52.4112 20.8049 50.9258 20.1612C47.9913 18.8913 45.5491 19.7578 43.3151 21.7238C42.252 22.6602 41.6622 22.7505 40.6821 21.7252C39.0787 20.0461 37.12 19.7024 34.9326 19.7752C32.7933 19.8466 29.3666 22.7301 29.0971 25.0733C28.7782 27.8388 29.4598 29.9854 31.4491 31.8553C32.8748 33.1966 33.3277 35.0112 33.5301 36.8825C33.6714 38.1961 32.5326 38.7859 31.8525 39.6204C31.1025 40.5408 30.8112 41.5194 31.0253 42.718C31.2845 44.1699 31.0486 44.5427 29.6054 44.732C26.6287 45.1223 23.7263 45.9728 20.6971 46.0573C19.2408 46.0981 17.8719 46.6733 16.6646 47.4874C15.4282 48.3218 14.3112 49.4883 14.4845 51.0073C14.6869 52.7738 14.5763 54.6466 15.4748 56.2995C15.919 57.1151 16.0835 57.9917 16.0792 58.9194C16.0661 62.7102 16.0748 66.501 16.0617 70.2917C16.0602 70.7403 16.0894 71.2544 15.8913 71.6257C14.703 73.8568 15.102 76.7082 13.1316 78.6364C12.9219 78.8417 12.8724 79.2364 12.801 79.5539C12.185 82.3034 13.953 84.6903 17.0127 85.3049Z" fill="white"/>
<path d="M41.2383 48.5068C40.5335 49.0792 40.3587 49.8699 40.0514 50.5457C39.6029 51.5316 38.9213 51.9699 37.8349 51.9656C32.7247 51.9423 27.616 51.9656 22.5058 51.9379C21.8461 51.935 20.7393 52.0966 20.6942 51.3583C20.6374 50.4554 21.7544 50.5733 22.4534 50.4612C26.7553 49.7724 31.0616 49.1083 35.3621 48.4093C36.5621 48.2141 37.0718 47.1685 36.6684 45.7194C36.4704 45.0102 36.1107 44.3476 35.8558 43.6529C35.4612 42.5782 35.8675 41.9971 37.0296 41.9636C37.3573 41.9534 37.6864 42.0102 38.0155 42.0306C38.9709 42.0889 39.2199 41.6913 39.0291 40.7447C38.3257 37.2612 37.0383 33.9554 36.0626 30.5549C35.8529 29.8267 35.1874 29.6258 34.6558 29.2529C33.7762 28.6355 33.1063 27.8418 33.1937 26.6957C33.2694 25.6995 33.7369 24.9306 34.6966 24.4529C35.7233 23.9418 36.5767 24.1078 37.4315 24.8054C38.3184 25.5291 38.8048 26.4641 38.4116 27.5214C37.9922 28.65 38.333 29.4088 39.0845 30.169C40.4446 31.5452 41.7495 32.9782 43.1417 34.3209C44.1306 35.2748 44.8587 35.202 45.549 34.066C46.2524 32.9068 46.8233 31.666 47.4189 30.4442C47.7772 29.7117 47.4189 29.2588 46.8116 28.7957C45.4908 27.7893 45.3641 25.8219 46.4709 24.7791C47.3388 23.9622 48.565 23.8194 49.5466 24.4224C50.617 25.0806 51.0815 26.3141 50.716 27.5301C49.9835 29.968 49.9864 29.9636 52.1315 31.4432C53.0781 32.0957 54.0466 32.7219 54.9349 33.4457C55.3631 33.7937 55.4869 33.6015 55.6544 33.2796C56.9942 30.7165 58.0558 28.0457 58.7781 25.2423C59.0112 24.3408 58.5728 23.6811 58.0456 22.9995C57.0684 21.734 57.1456 20.3578 58.1534 19.4403C59.2908 18.4049 60.7951 18.3816 61.9704 19.3806C63.0976 20.3389 63.2024 21.9452 62.017 23.0884C61.2247 23.8529 61.1548 24.568 61.4476 25.516C62.2252 28.0384 63.217 30.4791 64.2335 32.9112C64.5058 33.5622 64.7519 33.8665 65.5296 33.201C66.6116 32.2733 67.9587 31.6719 69.0611 30.7282C69.9277 29.9869 70.4184 29.3199 69.7005 28.1083C68.9345 26.8151 69.3291 25.3923 70.4039 24.5622C71.3505 23.8311 72.6189 23.8704 73.5932 24.6612C74.9286 25.7447 74.901 27.7544 73.4097 28.8131C72.5214 29.4437 72.4689 30.0204 72.9495 30.8825C73.4694 31.816 73.899 32.7991 74.3942 33.7486C75.1252 35.1495 75.9903 35.3476 77.1 34.2743C78.5505 32.8733 79.9282 31.3966 81.3393 29.9549C81.9408 29.3403 82.0966 28.685 81.8272 27.8185C81.3743 26.3622 81.8112 25.3151 82.9733 24.6393C84.348 23.8413 85.4752 24.0568 86.4408 25.3034C87.2869 26.3957 87.3349 27.9656 86.0854 28.701C83.7335 30.0874 83.5485 32.5078 82.7913 34.6355C82.0893 36.6044 81.7354 38.6942 81.1485 40.7083C80.8631 41.6869 81.2359 41.9796 82.1228 42.0525C84.8155 42.2724 84.817 42.284 83.8005 44.7787C83.5616 45.3641 83.499 45.9656 83.4917 46.5903C83.4772 47.7889 84.0204 48.3015 85.2306 48.5112C89.601 49.2656 93.9743 49.9981 98.3767 50.5398C98.4582 50.55 98.5427 50.5617 98.6184 50.5893C99.1514 50.783 100.015 50.9345 99.9524 51.4733C99.8665 52.2059 99.0204 51.868 98.4903 51.8738C93.5883 51.9146 88.6835 51.8724 83.783 51.9991C81.7646 52.0515 80.3315 51.4908 79.6296 49.5102C79.551 49.2903 79.4461 49.0442 79.0966 48.9408C78.8068 49.3864 79.1388 49.7724 79.2379 50.1685C79.5102 51.268 79.133 51.9015 78 51.9219C74.9112 51.9772 71.8194 51.9554 68.7291 51.9481C68.3228 51.9466 67.8189 51.9175 67.749 51.3976C67.6704 50.8122 68.1903 50.668 68.6213 50.5355C70.0369 50.1015 71.4568 49.6821 72.8752 49.2626C73.6456 49.0355 73.8772 48.5491 73.7563 47.7568C73.3034 44.7859 73.3223 44.7685 70.2422 44.25C67.1228 43.7243 63.9932 43.1709 60.8315 43.1141C56.6272 43.0369 52.4956 43.9063 48.3393 44.4321C47.2165 44.5748 46.8029 45.2913 46.6281 46.3617C46.1869 49.0646 46.2175 49.1534 48.865 49.7665C49.7869 49.9806 50.6956 50.2515 51.6073 50.5034C52.0209 50.617 52.4345 50.7845 52.3777 51.3088C52.3296 51.7588 51.9306 51.9073 51.5548 51.9102C48.3422 51.9262 45.1281 51.9481 41.9155 51.9015C41.0155 51.8884 40.7446 51.2432 40.9558 50.4131C41.1014 49.8306 41.4815 49.2932 41.2383 48.5068ZM44.7247 39.3597C44.3723 39.4777 43.717 38.9156 43.4097 39.5287C43.2291 39.8898 43.5291 40.4097 43.7869 40.784C44.1786 41.352 44.7539 41.3301 45.3437 41.1772C45.4631 41.1466 45.5767 41.0898 45.6961 41.0622C48.9437 40.2991 52.2262 39.6204 55.5437 39.4296C62.0563 39.0525 68.5398 39.3612 74.8675 41.1947C75.4238 41.3563 75.9335 41.2908 76.3019 40.7811C76.5014 40.5044 76.65 40.1927 76.5044 39.8593C76.251 39.2796 75.7005 39.3859 75.2184 39.3597C72.4587 39.2126 69.9349 38.1699 67.4272 37.1665C66.6335 36.8491 66.1034 36.5607 65.1015 36.6495C61.5146 36.967 57.8796 37.2102 54.3029 36.3641C54.0903 36.3131 53.8646 36.2403 53.7262 36.4092C52.7315 37.6267 51.217 37.7694 49.8786 38.218C48.2563 38.7656 46.634 39.4224 44.7247 39.3597ZM86.1131 80.4292C87.4325 80.652 87.4281 81.4427 87.0218 82.4345C86.8689 82.8073 86.5718 83.301 87.1252 83.4816C87.5767 83.6287 87.6204 83.0316 87.7835 82.733C87.9393 82.4491 88.0136 82.1185 88.0966 81.801C88.4592 80.4292 89.6257 80.0826 91.6849 80.933C94.4446 82.0719 97.4971 81.7529 100.252 80.6039C100.6 80.4583 101.018 80.4961 101.396 80.5966C101.703 80.6782 102.167 80.6461 102.208 81.0277C102.262 81.5243 101.736 81.5476 101.413 81.6204C99.4442 82.0602 97.4694 82.4665 95.4932 82.8728C94.2466 83.1292 92.9956 83.3709 91.7461 83.6083C90.9728 83.7554 90.4442 84.2199 89.9374 84.801C88.567 86.3767 87.4791 88.1622 85.8146 89.5325C83.4058 91.5146 80.6738 92.6971 77.7932 93.7559C72.5505 95.6825 67.2684 97.5714 62.7495 101.017C62.4116 101.275 62.0359 101.492 61.615 101.243C61.2102 101.002 61.1709 100.568 61.1971 100.148C61.3922 96.9044 63.2621 94.6617 65.8267 93.0452C68.0112 91.669 70.3922 90.5942 72.7223 89.4626C76.216 87.7646 79.6078 85.9442 82.0922 82.8277L86.1131 80.4292ZM77.6883 91.1272C81.1879 90.2359 84.032 88.3253 86.2005 85.4156C86.4699 85.0529 87.1034 84.6248 86.6053 84.1908C86.1641 83.8063 85.8626 84.4893 85.5597 84.7704C83.5238 86.6563 81.8214 88.9194 79.2335 90.1762C78.699 90.434 78.0408 90.4995 77.6883 91.1272ZM39.0073 89.7991C35.6825 88.0602 33.4689 85.3413 32.0374 81.9321C31.5859 80.8558 30.8519 80.3607 29.6476 80.3927C27.3422 80.4525 25.034 80.4102 22.7272 80.416C21.4908 80.419 20.2544 80.4131 19.0209 80.4597C18.5446 80.4772 17.8413 80.4845 17.7903 81.035C17.7422 81.5665 18.4529 81.5491 18.8607 81.635C20.9155 82.0704 22.9718 82.4971 25.0398 82.8597C27.7034 83.3272 30.1456 83.8952 31.7228 86.5762C33.4864 89.5733 36.4835 91.3224 39.5985 92.6796C42.3073 93.8593 45.1762 94.6631 47.898 95.8165C51.0364 97.1461 54.217 98.4364 56.8995 100.638C57.3655 101.02 57.8592 101.595 58.5247 101.205C59.2165 100.799 59.0243 100.06 58.915 99.4092C58.8743 99.1675 58.7796 98.9345 58.7184 98.6957C57.9044 95.5194 55.6238 93.6918 52.899 92.1918C49.7665 90.466 46.4345 89.1146 43.4112 87.1952C41.2252 85.8088 38.9272 84.4748 37.615 82.1301C36.7689 80.617 35.582 80.2355 34.015 80.4335C32.85 80.5806 32.4495 81.1908 33.032 82.2073C34.8888 85.4447 37.3791 88.0835 40.6835 89.8777C42.0422 90.616 43.4621 91.2452 44.8529 91.9238C42.8068 91.468 40.8582 90.7675 39.0073 89.7991Z" fill="#D7A52F"/>
<path d="M86.5908 77.2718C86.5427 76.4578 86.3476 76.0471 85.3646 76.4621C83.6461 77.1874 82.2248 76.6413 81.5476 74.8937C80.7641 72.8738 80.1918 70.7709 79.5437 68.7C79.3602 68.1146 79.535 67.5772 79.8175 67.0427C80.2777 66.1718 80.8194 65.3112 80.8369 64.2888C80.8675 62.3942 80.9607 60.4922 80.8194 58.6078C80.6738 56.6505 79.6748 55.0718 77.8879 54.1777C75.5811 53.0243 72.9699 53.4262 71.2355 55.1563C69.4646 56.9228 69.3772 59.0228 70.299 61.2117C70.6296 61.9966 70.7534 62.7757 70.7534 63.6087C70.7534 66.1587 70.7359 68.7117 70.8102 71.2602C70.8422 72.3422 70.8787 73.3995 70.4636 74.4175C70.0864 75.3437 70.5233 75.6947 71.3855 75.8316C72.4194 75.9961 73.4403 75.782 74.467 75.7733C75.734 75.7631 75.9248 75.4369 75.4733 74.2602C74.9578 72.916 75.1573 71.5777 75.2578 70.1854C75.852 70.3121 75.8621 70.6384 75.9452 70.9019C76.5772 72.8956 77.2151 74.8893 77.8282 76.8888C78.3189 78.4922 78.1631 78.7354 76.5685 79.2117C76.1578 79.334 75.8505 79.1898 75.5257 79.0005C75.035 78.715 74.4597 78.5738 73.9923 78.8665C73.2641 79.3209 72.7005 79.2379 71.9592 78.8388C70.8554 78.2461 70.0981 78.8039 69.9859 80.1029C69.9422 80.6039 70.1578 81.1777 69.5855 81.6641C69.083 81.0277 69.3495 80.2981 69.2243 79.6544C69.1209 79.1155 68.8515 78.7427 68.3039 78.6204C67.9107 78.533 67.5612 78.635 67.3092 78.9583C67.0121 79.3384 67.0529 79.8117 66.9757 80.2558C66.9088 80.6374 67.0063 81.2534 66.4923 81.2534C65.9316 81.2534 66.1384 80.6316 66.0539 80.2617C66.0452 80.2223 66.0466 80.1801 66.0437 80.1393C65.9709 79.1956 65.4641 78.7267 64.516 78.734C63.5389 78.7427 63.118 79.2932 63.0612 80.2107C63.0408 80.5398 63.0364 80.8762 62.9578 81.1922C62.8762 81.5199 62.9345 82.066 62.4335 82.0165C62.0505 81.9786 62.1189 81.4966 62.0942 81.1806C62.0476 80.6068 62.0578 80.0272 61.9806 79.4592C61.9253 79.0515 61.6282 78.8053 61.2015 78.8083C60.7675 78.8097 60.485 79.082 60.4442 79.4825C60.3947 79.9675 60.4413 80.4641 60.4602 80.9549C60.4791 81.4238 60.6 81.916 59.9651 82.4097C59.8296 81.4544 59.6927 80.6578 59.6083 79.8583C59.5223 79.0398 59.0709 78.7078 58.2859 78.7311C57.4558 78.7558 57.2651 79.2393 57.3175 79.9733C57.3641 80.633 57.3277 81.2942 56.4612 81.8185C56.4612 81.0262 56.5078 80.4146 56.4481 79.8146C56.384 79.1767 55.9777 78.7966 55.334 78.6597C54.6262 78.5097 54.1369 78.8097 53.7568 79.3631C53.4058 79.8714 53.3534 80.4583 53.4772 81.0262C53.6388 81.7602 53.6476 82.4461 53.5005 83.2019C53.2384 84.5534 54.466 85.7563 55.4913 85.1476C56.5821 84.501 57.5884 85.2568 58.6995 84.9757C60.0393 84.6379 61.5728 85.7913 63.0219 84.8345C63.1486 84.75 63.4427 84.8257 63.6131 84.9131C65.5063 85.8976 67.4403 84.884 69.3597 84.9859C70.65 85.0544 71.9942 85.2029 73.3573 84.9146C74.0986 84.7587 74.9855 85.1549 75.7835 84.6248C76.1185 84.402 76.4913 84.6612 76.8335 84.8083C78.4719 85.5204 79.7723 84.5752 79.5947 82.8015C79.5291 82.1461 78.9088 81.4704 79.5699 80.8456C80.2355 80.218 80.8486 80.9811 81.4864 81.0568L85.883 79.5626C86.4947 78.9058 86.6418 78.1223 86.5908 77.2718ZM76.6049 63.5257C76.5772 63.9961 76.3325 64.4563 75.7879 64.433C75.1689 64.4068 75.2039 63.8592 75.1806 63.4092C75.1413 62.6621 75.5767 62.0986 75.9233 61.4971C76.6777 60.185 76.4709 59.7233 74.9913 59.4146C74.6214 59.3374 74.1961 59.2937 74.151 58.8466C74.084 58.1767 74.6214 57.8432 75.0801 57.5112C75.4282 57.2607 75.7791 57.3583 76.0733 57.6583C76.4665 58.0617 76.6223 58.5597 76.6471 59.1073C76.6617 59.4335 76.6646 59.7612 76.6689 60.0888C76.6719 60.4165 76.6704 60.7442 76.6704 61.0718C76.6529 61.0718 76.6354 61.0718 76.6165 61.0718C76.6194 61.8917 76.6529 62.7117 76.6049 63.5257ZM38.7539 71.4087C38.3155 71.8107 37.9631 72.1442 37.6005 72.466C36.4762 73.4563 35.4816 73.4898 34.2685 72.5927C33.4573 71.9927 32.9432 71.4015 33.7908 70.3762C34.3384 69.7136 33.5126 67.4461 32.7175 67.1621C32.2646 67.0005 32.2253 67.385 32.2253 67.65C32.2209 69.8971 32.052 72.1675 32.802 74.3403C33.1063 75.2243 32.9782 75.7121 31.9719 75.7223C30.7777 75.734 29.5835 75.7456 28.3908 75.7107C27.552 75.6845 27.217 75.233 27.7282 74.5049C28.3675 73.5961 28.4112 72.6029 28.4097 71.5617C28.4024 66.951 28.4126 62.3388 28.4214 57.7282C28.4228 56.8952 28.3748 56.0898 27.7995 55.3995C27.233 54.7194 27.5796 54.2709 28.3049 54.2272C29.6578 54.1456 31.0194 54.1733 32.3753 54.201C32.7961 54.2097 33.3641 54.4631 33.0816 54.9393C32.2486 56.3447 33.1748 57.5141 33.5214 58.7126C33.8709 59.9214 34.5262 61.0471 35.0927 62.1859C35.4058 62.8165 35.7466 62.9927 36.1762 62.1903C37.1723 60.3306 37.8757 58.3631 38.4816 56.3549C38.55 56.1262 38.5966 55.835 38.5151 55.6282C37.9937 54.3029 38.7816 54.1485 39.7835 54.1544C40.8131 54.1602 41.8427 54.1252 42.8709 54.1646C44.1073 54.2112 44.2587 54.5214 43.583 55.5437C43.3267 55.9311 43.1374 56.3214 43.1359 56.799C43.1185 61.7359 43.0966 66.6743 43.0748 71.6112C43.0704 72.6 43.0471 73.5597 43.7272 74.4248C44.1699 74.9884 43.9748 75.5301 43.2058 75.7063C41.8544 76.018 40.4986 75.9015 39.1588 75.6583C38.333 75.5083 38.4 74.9243 38.6956 74.3286C39.1544 73.3995 39.2257 72.4733 38.7539 71.4087ZM90.2607 65.1408C90.3466 62.8121 90.2039 60.5519 90.466 58.2874C90.6947 56.3214 91.8422 55.1286 93.4486 54.3466C95.3534 53.4204 97.3296 53.451 99.0364 54.8199C100.852 56.2762 101.875 58.1461 101.203 60.5709C100.966 61.4272 101.417 62.1801 101.401 63.0044C101.353 65.5573 101.318 68.1117 101.396 70.6631C101.484 73.5961 98.7816 76.1782 96.0219 76.2408C93.8287 76.2903 90.8811 74.9272 90.4427 71.4874C90.1719 69.3466 90.3685 67.2087 90.2607 65.1408ZM94.2291 65.049C94.3398 66.8228 94.0864 68.6796 94.4054 70.5189C94.5539 71.3782 94.9456 72.051 95.9389 71.9097C96.9 71.7728 97.149 70.9791 97.1651 70.1592C97.2015 68.3505 97.1767 66.5403 97.1709 64.7301C97.1694 64.2626 97.0617 63.8257 96.6495 63.5359C95.9389 63.0379 96.0233 62.4612 96.4573 61.835C97.0471 60.9845 97.299 60.0451 97.0806 59.0257C96.8869 58.1214 95.9607 57.6917 95.1772 58.1039C94.5947 58.4097 94.4563 58.9733 94.3733 59.5529C94.1126 61.3544 94.318 63.1689 94.2291 65.049ZM51.4602 53.4655C54.4922 53.4481 57.3029 56.4655 57.019 59.4859C56.9257 60.4777 56.968 61.4519 57.0291 62.4408C57.1471 64.3515 56.7422 66.1427 55.4054 67.5918C54.6859 68.3723 53.7553 68.8238 52.6573 68.7976C51.5986 68.7728 51.1573 69.3073 51.2112 70.3223C51.2854 71.7422 50.9476 73.1956 51.7078 74.5573C52.0471 75.166 51.667 75.6175 51.0175 75.6874C49.752 75.8228 48.4835 75.9888 47.2063 75.734C46.3791 75.5694 46.1287 75.1209 46.567 74.4233C46.9689 73.784 46.9937 73.1112 46.9922 72.4078C46.9879 69.5665 46.9733 66.7252 46.9981 63.884C47.0068 62.9549 46.8932 62.0709 46.4097 61.2728C44.4787 58.0893 46.634 53.4743 51.4602 53.4655ZM63.3117 54.1689C64.5874 54.1689 65.8631 54.1471 67.1374 54.1762C68.0534 54.1966 68.4597 54.5651 68.2194 55.6005C67.816 57.3408 67.9223 59.1306 68.1452 60.8825C68.2646 61.8204 68.1291 62.3505 67.1126 62.3534C66.5054 62.3549 66.3554 62.6505 66.3656 63.2068C66.3816 64.0282 66.3379 64.8524 66.2898 65.6723C66.2287 66.7107 66.3175 67.583 67.6922 67.6136C68.183 67.6252 68.3578 68.0272 68.2515 68.5194C67.8379 70.4359 67.9456 72.3728 68.1291 74.2966C68.2296 75.351 67.7956 75.7442 66.8185 75.734C64.516 75.7092 62.2165 75.9437 59.9126 75.7311C58.6777 75.6175 58.4723 75.3277 59.0097 74.1714C59.2456 73.6646 59.3097 73.1519 59.3097 72.6146C59.317 67.4257 59.3257 62.2369 59.3301 57.0481C59.3301 56.4291 59.3185 55.8087 58.9078 55.2816C58.299 54.501 58.7898 54.2286 59.4816 54.2024C60.7558 54.1544 62.033 54.1893 63.3102 54.1893C63.3117 54.182 63.3117 54.1748 63.3117 54.1689ZM63.552 60.1442C63.5549 60.1442 63.5563 60.1442 63.5592 60.1442C63.5592 60.6772 63.5432 61.2117 63.5651 61.7447C63.5825 62.183 63.4981 62.7029 64.0355 62.9097C64.4403 63.0641 64.7345 62.7685 65.0039 62.5151C65.3738 62.1655 65.6709 61.8015 65.4291 61.2233C65.1787 60.6204 65.0432 59.9636 64.752 59.384C64.4869 58.8583 64.4549 57.7966 63.916 57.9146C63.2432 58.0631 63.6655 59.0417 63.5578 59.6519C63.5272 59.8107 63.552 59.9796 63.552 60.1442ZM64.5233 67.4053C63.9015 67.3864 63.6189 67.7636 63.6 68.3141C63.5651 69.3743 63.5811 70.4359 63.5913 71.4961C63.5927 71.7335 63.5942 72.0481 63.8884 72.099C64.1855 72.15 64.2772 71.85 64.3646 71.6286C64.7228 70.7214 65.0272 69.7908 65.4306 68.9053C65.8427 68.0039 65.5209 67.4184 64.5233 67.4053ZM22.5306 54.1034C23.1481 54.1034 23.7685 54.0655 24.3816 54.1136C25.0908 54.1689 25.551 54.4951 25.0209 55.2291C24.5214 55.9209 24.4864 56.6767 24.4879 57.4631C24.4908 62.4466 24.4952 67.4301 24.4922 72.4121C24.4922 73.1214 24.5796 73.7971 24.8956 74.4495C25.251 75.1791 24.9859 75.6175 24.1893 75.7835C22.9078 76.05 21.6422 75.8388 20.3825 75.6597C19.7039 75.5636 19.4549 75.0481 19.8029 74.4728C20.333 73.5961 20.2704 72.6597 20.2719 71.7175C20.2806 67.1461 20.282 62.5748 20.2922 58.0034C20.2937 57.0932 20.2777 56.1845 19.8772 55.3413C19.4665 54.4791 19.9151 54.2053 20.6767 54.1718C21.2927 54.1456 21.9117 54.166 22.5291 54.166C22.5306 54.1456 22.5306 54.1238 22.5306 54.1034ZM87.8345 65.0709C87.8345 67.2131 87.8316 69.3553 87.8359 71.4976C87.8374 72.485 87.8257 73.4607 88.3151 74.3869C88.6806 75.0801 88.433 75.6524 87.6015 75.6888C86.2864 75.7456 84.9656 75.734 83.6505 75.6845C82.9995 75.6597 82.5728 75.3306 83.0869 74.6461C83.5427 74.0388 83.5995 73.366 83.5995 72.6568C83.5995 67.5524 83.6083 62.4481 83.6024 57.3452C83.601 56.5704 83.6549 55.8 83.218 55.0675C82.8583 54.466 83.3578 54.217 83.8442 54.2024C85.1607 54.1602 86.4801 54.15 87.7952 54.201C88.4389 54.2257 88.8408 54.616 88.4534 55.2859C87.8636 56.3039 87.849 57.4107 87.8418 58.5218C87.8243 60.7034 87.8345 62.8864 87.8345 65.0709ZM42.367 78.4922C43.3369 79.4403 44.5981 78.7398 45.8243 78.7952C46.8044 78.8403 47.6942 79.0558 48.7194 78.7456C49.7388 78.4369 50.6083 79.6063 50.3024 80.7684C50.1248 81.4427 50.1131 82.0049 50.4262 82.6558C50.7845 83.3985 50.4845 84.1107 49.9107 84.667C49.3981 85.1636 48.8185 85.382 48.1282 84.9641C47.6461 84.6728 47.1219 84.6189 46.5859 84.8345C45.8942 85.1141 45.2272 85.117 44.5835 84.6932C44.033 84.332 43.5466 84.6364 43.085 84.8942C42.4384 85.2553 41.8704 85.2641 41.2719 84.766C40.6893 84.2811 40.4825 83.6956 40.7083 83.0126C41.0476 81.9918 40.749 80.9665 40.8175 79.9471C40.8743 79.0733 41.2529 78.5534 42.367 78.4922ZM62.5675 51.5665C62.885 50.2995 63.0626 48.8752 63.118 47.432C63.1398 46.8553 63.552 46.5714 64.1083 46.5146C64.3937 46.4854 64.6835 46.4796 64.9719 46.4796C66.9466 46.4767 67.1927 46.8714 66.3554 48.6495C65.7947 49.8408 65.2748 51.0524 64.6995 52.2379C64.4374 52.7796 64.1782 53.4816 63.3728 53.2384C62.6607 53.0228 62.6097 52.3456 62.5675 51.5665Z" fill="#BA203B"/>
</svg>
